<?xml version="1.0" encoding="iso-8859-1"?>
<!-- Generator: Adobe Illustrator 17.1.0, SVG Export Plug-In . SVG Version: 6.00 Build 0)  -->
<!DOCTYPE svg PUBLIC "-//W3C//DTD SVG 1.1//EN" "http://www.w3.org/Graphics/SVG/1.1/DTD/svg11.dtd">
<svg version="1.1" id="Capa_1" xmlns="http://www.w3.org/2000/svg" xmlns:xlink="http://www.w3.org/1999/xlink" x="0px" y="0px"
	 viewBox="0 0 197.708 197.708" style="enable-background:new 0 0 197.708 197.708;" xml:space="preserve">
<path d="M20.762,7.5c0-4.142,3.358-7.5,7.5-7.5h7.791h125.602h7.791c4.142,0,7.5,3.358,7.5,7.5s-3.358,7.5-7.5,7.5h-0.291v9.457
	H28.553V15h-0.291C24.12,15,20.762,11.642,20.762,7.5z M169.446,182.708h-0.291v-9.457H28.553v9.457h-0.291
	c-4.142,0-7.5,3.358-7.5,7.5s3.358,7.5,7.5,7.5h7.791h125.602h7.791c4.142,0,7.5-3.358,7.5-7.5S173.588,182.708,169.446,182.708z
	 M169.155,39.457v118.795H28.553V39.457H169.155z M126.092,134.789c0.774,0,1.904-0.209,2.888-1.207
	c3.631-3.681,6.691-7.963,9.096-12.728c2.245-4.448,3.831-8.983,4.712-13.479c0.339-1.73-0.41-2.961-0.887-3.54
	c-0.471-0.572-1.516-1.532-3.226-1.532c-0.072,0-0.145,0.002-0.217,0.005l-20.646,0.978c-1.749,0.083-3.284,1.117-3.821,2.573
	c-0.286,0.777-0.626,1.561-1.011,2.323c-0.386,0.764-0.813,1.503-1.272,2.201c-0.97,1.474-1.063,3.217-0.242,4.549l10.989,17.831
	C123.237,134.032,124.596,134.789,126.092,134.789z M87.367,114.933c0.821-1.332,0.728-3.075-0.242-4.549
	c-0.461-0.702-0.888-1.439-1.27-2.196c-0.384-0.759-0.725-1.543-1.015-2.331c-0.536-1.453-2.071-2.487-3.821-2.57l-20.645-0.978
	c-0.073-0.003-0.146-0.005-0.218-0.005c-1.711,0-2.756,0.96-3.227,1.532c-0.477,0.579-1.226,1.81-0.886,3.541
	c0.882,4.495,2.468,9.03,4.712,13.478c2.405,4.764,5.465,9.047,9.097,12.728c0.983,0.997,2.113,1.206,2.889,1.206
	c1.495,0,2.854-0.757,3.635-2.025L87.367,114.933z M81.925,61.675c-0.292,0.711-0.651,2.138,0.231,3.698l10.175,17.989
	c0.854,1.509,2.468,2.426,4.019,2.252c0.828-0.096,1.682-0.145,2.534-0.145c0.853,0,1.706,0.049,2.537,0.145
	c0.19,0.021,0.386,0.033,0.579,0.033c1.528,0,2.87-0.698,3.588-1.868l10.965-17.845c0.689-1.122,0.822-2.474,0.365-3.711
	c-0.259-0.701-0.939-1.957-2.574-2.482c-4.922-1.583-10.124-2.385-15.461-2.385c-5.013,0-9.804,0.636-14.24,1.89
	C82.951,59.725,82.214,60.974,81.925,61.675z"/>
<g>
</g>
<g>
</g>
<g>
</g>
<g>
</g>
<g>
</g>
<g>
</g>
<g>
</g>
<g>
</g>
<g>
</g>
<g>
</g>
<g>
</g>
<g>
</g>
<g>
</g>
<g>
</g>
<g>
</g>
</svg>
